#!OML:ASF I:\salsa\salsa 7_09\Patient 1\Session 1\dancerfemale.ASF
:FULLY-SPECIFIED
:DEGREES
1401
root 12.1157 15.7666 -4.1548 -173.23 584.461 536.058
lowerback 4.50582 0.401426 1.61328
upperback -7.44657 0.477512 -1.60587
thorax -10.433 -0.00448422 -2.68282
lowerneck 2.41283 -9.71948 -12.0416
upperneck 7.23255 -14.7139 17.5381
head 3.94359 -7.32857 6.74087
rclavicle 1.11319e-014 7.15625e-015
rhumerus -27.9464 -9.49597 -78.9064
rradius 106.055
rwrist 0.960483
rhand 14.2274 30.8923
rfingers 7.12502
rthumb 39.1239 5.40791
lclavicle 1.11319e-014 7.15625e-015
lhumerus -42.6907 1.89203 77.9689
lradius 116.47
lwrist -8.07674
lhand -6.59918 27.903
lfingers 7.12502
lthumb 19.2563 56.9696
rfemur -24.7873 -8.33336 32.6787
rtibia 31.5277
rfoot -20.9912 -20.8908
rtoes 0.0157571
lfemur -22.5072 12.4504 -12.0952
ltibia 75.8358
lfoot 9.0038 -0.903732
ltoes 15.1918
1402
root 11.9168 15.7651 -3.98633 -172.29 586.602 534.689
lowerback 4.53059 0.349569 1.76866
upperback -7.34221 0.451939 -1.28423
thorax -10.3328 -0.0110533 -2.42021
lowerneck 1.72379 -9.28496 -11.4496
upperneck 7.52372 -14.1128 17.6097
head 4.01512 -6.97877 6.68215
rclavicle -1.94809e-014 -2.38542e-015
rhumerus -27.5044 -8.79382 -77.1206
rradius 106.7
rwrist 0.849102
rhand 14.7352 31.6803
rfingers 7.12502
rthumb 39.6023 6.33547
lclavicle -1.94809e-014 -2.38542e-015
lhumerus -40.1982 1.7245 77.0132
lradius 116.354
lwrist -8.05996
lhand -7.14994 28.3571
lfingers 7.12502
lthumb 18.7266 57.4757
rfemur -23.1186 -7.88485 33.6167
rtibia 30.8817
rfoot -21.1541 -19.4549
rtoes -1.55233
lfemur -26.1363 12.1552 -11.7951
ltibia 78.3561
lfoot 7.07794 -2.87846
ltoes 11.1569
1403
root 11.7335 15.7617 -3.80797 -171.153 589.023 533.49
lowerback 4.56412 0.471603 1.91717
upperback -7.488 0.641353 -1.11021
thorax -10.5062 0.0708628 -2.34441
lowerneck 1.13374 -8.91282 -10.8752
upperneck 8.06662 -13.662 17.6959
head 4.17284 -6.7015 6.62215
rclavicle 1.31993e-013 1.66979e-014
rhumerus -27.2848 -8.54769 -75.0801
rradius 107.425
rwrist 1.05025
rhand 14.8297 32.555
rfingers 7.12502
rthumb 39.6913 7.23658
lclavicle 1.31993e-013 1.66979e-014
lhumerus -37.7421 1.13487 76.11
lradius 116.171
lwrist -7.88699
lhand -7.74285 28.4964
lfingers 7.12502
lthumb 18.1563 57.6691
rfemur -21.839 -7.56831 34.2321
rtibia 30.394
rfoot -21.3797 -17.5117
rtoes -2.05922
lfemur -29.677 10.9964 -11.9498
ltibia 79.7744
lfoot 5.11633 -3.35599
ltoes 10.5056
1404
root 11.5527 15.7503 -3.62113 -169.656 591.733 531.897
lowerback 4.46317 0.709616 2.23709
upperback -7.61227 1.00091 -0.944989
thorax -10.5635 0.22281 -2.39429
lowerneck 0.663753 -8.543 -10.3914
upperneck 8.59096 -13.2575 17.9802
head 4.3339 -6.44993 6.64443
rclavicle -1.70955e-014 3.18055e-015
rhumerus -26.9934 -8.67621 -72.9222
rradius 108.159
rwrist 1.3028
rhand 14.0835 33.0684
rfingers 7.12502
rthumb 38.9882 7.54497
lclavicle -1.70955e-014 3.18055e-015
lhumerus -35.1679 0.439638 75.1615
lradius 115.887
lwrist -7.55023
lhand -8.24396 28.5436
lfingers 7.12502
lthumb 17.6741 57.7603
rfemur -20.7598 -7.47325 34.9231
rtibia 30.238
rfoot -21.6847 -15.2411
rtoes -4.0471
lfemur -32.7435 9.293 -11.7828
ltibia 80.3238
lfoot 1.01212 -1.34888
ltoes 4.53387
1405
root 11.3797 15.7241 -3.4258 -167.848 594.717 529.848
lowerback 4.33512 0.973023 2.66014
upperback -7.62302 1.41246 -0.692992
thorax -10.4721 0.400675 -2.41218
lowerneck 0.422985 -8.1223 -9.85819
upperneck 8.81398 -12.7431 18.1651
head 4.34098 -6.16401 6.64904
rclavicle 2.54444e-014 -4.77083e-015
rhumerus -26.3836 -8.89668 -70.589
rradius 108.822
rwrist 1.14889
rhand 13.1236 33.5673
rfingers 7.12502
rthumb 38.0826 7.7906
lclavicle 2.54444e-014 -4.77083e-015
lhumerus -32.6789 -0.0331553 74.1616
lradius 115.595
lwrist -7.14738
lhand -8.58192 28.5516
lfingers 7.12502
lthumb 17.3488 57.7973
rfemur -19.5115 -7.90663 35.6762
rtibia 29.9656
rfoot -21.5452 -12.6055
rtoes -8.82325
lfemur -35.22 7.41241 -11.1417
ltibia 80.1064
lfoot -3.0309 1.14467
ltoes 3.57401
1406
root 11.2118 15.6987 -3.22137 -165.689 597.962 527.341
lowerback 4.66936 1.24115 3.23363
upperback -7.74514 1.85834 -0.465424
thorax -10.7784 0.570466 -2.55948
lowerneck -0.0633049 -7.67449 -9.08668
upperneck 9.34137 -12.203 18.059
head 4.4469 -5.84303 6.50919
rclavicle -1.34975e-013 -3.65764e-014
rhumerus -25.8956 -9.16611 -68.0619
rradius 109.579
rwrist 0.437853
rhand 12.3522 34.2657
rfingers 7.12502
rthumb 37.3537 8.29347
lclavicle -1.34975e-013 -3.65764e-014
lhumerus -30.7145 -0.516776 72.9411
lradius 115.467
lwrist -6.69321
lhand -8.85443 28.7954
lfingers 7.12502
lthumb 17.0866 58.064
rfemur -17.8475 -8.12799 36.2113
rtibia 29.4292
rfoot -21.2398 -9.66384
rtoes -11.6914
lfemur -37.0489 5.6959 -10.0715
ltibia 79.0535
lfoot -6.77987 3.65028
ltoes 5.33065
1407
root 11.0404 15.6893 -3.01184 -162.872 601.335 524.137
lowerback 5.11211 1.41455 3.79672
upperback -7.8171 2.20082 -0.0851456
thorax -11.105 0.696386 -2.52787
lowerneck -1.09587 -7.02032 -8.67952
upperneck 10.234 -11.4377 18.1987
head 4.76661 -5.37236 6.50782
rclavicle -4.11484e-014 1.11319e-014
rhumerus -24.9058 -9.33729 -65.4086
rradius 110.212
rwrist -0.632264
rhand 12.0583 34.9049
rfingers 7.12502
rthumb 37.0759 8.86011
lclavicle -4.11484e-014 1.11319e-014
lhumerus -29.0259 -0.705629 71.5904
lradius 115.474
lwrist -6.26374
lhand -9.19514 29.31
lfingers 7.12502
lthumb 16.7586 58.6067
rfemur -15.8879 -7.49911 36.5658
rtibia 28.5855
rfoot -20.832 -7.0941
rtoes -10.136
lfemur -38.2212 4.20312 -8.48441
ltibia 77.1294
lfoot -10.1075 5.87003
ltoes 6.20972
1408
root 10.8615 15.6851 -2.80226 -158.612 604.664 519.497
lowerback 5.56219 1.49793 4.58824
upperback -7.96218 2.46267 0.384223
thorax -11.5242 0.760504 -2.51861
lowerneck -1.93438 -6.19979 -8.37115
upperneck 11.0363 -10.4656 18.4917
head 5.01276 -4.81109 6.60676
rclavicle 1.5704e-014 1.35174e-014
rhumerus -23.4711 -9.65482 -62.9126
rradius 110.443
rwrist -1.59526
rhand 12.1483 35.5171
rfingers 7.12502
rthumb 37.161 9.49438
lclavicle 1.5704e-014 1.35174e-014
lhumerus -27.7225 -0.787258 69.9479
lradius 115.619
lwrist -5.89174
lhand -9.40525 29.6306
lfingers 7.12502
lthumb 16.5563 58.9443
rfemur -13.8836 -6.19412 37.1116
rtibia 27.5454
rfoot -20.3622 -5.11126
rtoes -8.42406
lfemur -38.8651 2.79264 -6.11901
ltibia 74.4349
lfoot -12.8914 7.61441
ltoes 6.67731
1409
root 10.6776 15.6882 -2.58747 -152.993 607.913 513.781
lowerback 5.72985 1.68918 5.1439
upperback -8.16941 2.83194 0.841911
thorax -11.8419 0.893583 -2.39585
lowerneck -2.51031 -5.49351 -7.81483
upperneck 11.639 -9.60862 18.4773
head 5.14434 -4.32691 6.56339
rclavicle -9.93923e-015 -1.82882e-014
rhumerus -21.9974 -10.4005 -60.1084
rradius 110.304
rwrist -2.53895
rhand 12.1051 36.366
rfingers 7.12502
rthumb 37.1201 10.3327
lclavicle -9.93923e-015 -1.82882e-014
lhumerus -26.4207 -1.1482 68.4722
lradius 115.716
lwrist -5.60969
lhand -9.55116 29.5842
lfingers 7.12502
lthumb 16.4158 58.9096
rfemur -11.9596 -4.83607 37.4538
rtibia 26.1434
rfoot -19.9294 -3.02901
rtoes -10.2225
lfemur -39.1466 0.978799 -3.44133
ltibia 70.9261
lfoot -15.1373 6.59439
ltoes 5.16589
1410
root 10.4953 15.7014 -2.35858 -146.704 611.129 507.736
lowerback 5.63021 1.88743 5.24622
upperback -8.38474 3.12635 1.15603
thorax -12.0207 1.02584 -2.15386
lowerneck -3.19306 -4.79924 -7.23318
upperneck 12.2946 -8.7897 18.4858
head 5.32304 -3.85044 6.51999
rclavicle 2.5842e-015 5.56597e-015
rhumerus -20.3412 -11.2182 -57.1922
rradius 109.646
rwrist -3.62987
rhand 12.0811 37.3668
rfingers 7.12502
rthumb 37.0974 11.3276
lclavicle 2.5842e-015 5.56597e-015
lhumerus -24.8055 -1.51032 67.1888
lradius 115.606
lwrist -5.37328
lhand -9.3553 29.396
lfingers 7.12502
lthumb 16.6044 58.7057
rfemur -10.2409 -3.79653 37.0751
rtibia 24.5327
rfoot -19.4965 -0.657623
rtoes -12.2469
lfemur -39.1354 -1.62266 -0.94186
ltibia 66.6888
lfoot -16.3061 3.01087
ltoes 2.27246
1411
root 10.3036 15.7561 -2.13478 -138.484 614.232 499.851
lowerback 5.32805 2.05854 5.04158
upperback -8.55025 3.33036 1.46618
thorax -12.0393 1.14828 -1.7223
lowerneck -3.92891 -4.09136 -6.71548
upperneck 12.9652 -7.98228 18.6228
head 5.53183 -3.37235 6.5332
rclavicle 4.79071e-014 4.05521e-014
rhumerus -18.3349 -12.025 -54.4082
rradius 108.512
rwrist -4.80453
rhand 12.6629 38.2219
rfingers 7.12502
rthumb 37.6474 12.3276
lclavicle 4.79071e-014 4.05521e-014
lhumerus -23.0498 -1.69469 65.8086
lradius 115.427
lwrist -4.96931
lhand -8.53677 29.2372
lfingers 7.12502
lthumb 17.3923 58.4791
rfemur -8.50969 -2.49749 36.4017
rtibia 22.7364
rfoot -18.9448 1.46948
rtoes -12.6581
lfemur -38.5234 -5.13082 1.80639
ltibia 61.7498
lfoot -16.8284 -1.68138
ltoes -1.23136
1412
root 10.1044 15.7951 -1.91821 -126.011 616.887 487.8
lowerback 4.81931 2.27475 4.78519
upperback -8.72137 3.5734 1.79871
thorax -11.9437 1.29771 -1.23368
lowerneck -4.48535 -3.42708 -6.37344
upperneck 13.5038 -7.26328 19.035
head 5.70077 -2.94697 6.66959
rclavicle -5.50634e-014 -5.56597e-015
rhumerus -16.3387 -12.932 -51.8423
rradius 107.187
rwrist -5.88276
rhand 13.5226 39.1115
rfingers 7.12502
rthumb 38.4592 13.4387
lclavicle -5.50634e-014 -5.56597e-015
lhumerus -21.3928 -1.89829 64.122
lradius 115.171
lwrist -4.45444
lhand -7.46391 28.9028
lfingers 7.12502
lthumb 18.4246 58.0502
rfemur -6.97513 -0.734163 35.8256
rtibia 21.0167
rfoot -18.3142 3.27292
rtoes -13.1133
lfemur -37.7098 -9.27638 5.20946
ltibia 56.6237
lfoot -18.0306 -6.53374
ltoes -7.13793
1413
root 9.90967 15.8317 -1.69423 -109.168 618.627 471.399
lowerback 4.44644 2.44942 4.69675
upperback -8.98602 3.78338 2.09398
thorax -12.0364 1.40508 -0.878617
lowerneck -4.62348 -2.82092 -6.53309
upperneck 13.8132 -6.6352 19.9137
head 5.76496 -2.60048 7.0539
rclavicle 1.45113e-014 1.51076e-014
rhumerus -14.5914 -13.6218 -49.533
rradius 105.606
rwrist -6.55013
rhand 13.7953 40.3174
rfingers 7.12502
rthumb 38.7165 14.7167
lclavicle 1.45113e-014 1.51076e-014
lhumerus -19.902 -2.17839 62.6033
lradius 114.842
lwrist -4.02985
lhand -6.55444 28.6077
lfingers 7.12502
lthumb 19.2993 57.67
rfemur -5.58886 0.823593 35.1514
rtibia 19.2754
rfoot -17.5277 5.19335
rtoes -13.9349
lfemur -37.0523 -14.1201 8.67303
ltibia 51.8522
lfoot -18.2569 -8.44706
ltoes -14.0775
1414
root 9.71441 15.8522 -1.45235 -89.2077 619.252 451.676
lowerback 4.3289 2.55313 4.6902
upperback -9.22593 3.92595 2.4245
thorax -12.2638 1.47086 -0.530779
lowerneck -4.59649 -2.37709 -6.94283
upperneck 14.0981 -6.20182 20.7273
head 5.81692 -2.37597 7.45247
rclavicle 1.98785e-014 7.95139e-015
rhumerus -12.8849 -13.9561 -47.4999
rradius 103.685
rwrist -6.92117
rhand 13.4286 42.0054
rfingers 7.12502
rthumb 38.3705 16.308
lclavicle 1.98785e-014 7.95139e-015
lhumerus -18.6622 -2.41387 61.4602
lradius 114.61
lwrist -3.53223
lhand -6.13934 28.8505
lfingers 7.12502
lthumb 19.6984 57.8725
rfemur -4.48189 1.91429 34.2117
rtibia 18.1938
rfoot -17.0868 7.56507
rtoes -14.7989
lfemur -36.3148 -19.2238 11.7396
ltibia 47.95
lfoot -18.2729 -11.6999
ltoes -20.5977
